<?xml version="1.0" encoding="UTF-8"?>
<svg xmlns="http://www.w3.org/2000/svg" xmlns:xlink="http://www.w3.org/1999/xlink" width="24" height="24" viewBox="0 0 24 24">
<path fill="none" stroke-width="1.5" stroke-linecap="round" stroke-linejoin="round" stroke="rgb(0%, 0%, 0%)" stroke-opacity="1" stroke-miterlimit="4" d="M 9 6 C 12.726562 6 15.75 4.992188 15.75 3.75 C 15.75 2.507812 12.726562 1.5 9 1.5 C 5.273438 1.5 2.25 2.507812 2.25 3.75 C 2.25 4.992188 5.273438 6 9 6 Z M 9 6 "/>
<path fill="none" stroke-width="1.5" stroke-linecap="round" stroke-linejoin="round" stroke="rgb(0%, 0%, 0%)" stroke-opacity="1" stroke-miterlimit="4" d="M 2.25 3.75 L 2.25 14.25 C 2.25 14.847656 2.960938 15.417969 4.226562 15.839844 C 5.492188 16.261719 7.210938 16.5 9 16.5 C 10.789062 16.5 12.507812 16.261719 13.773438 15.839844 C 15.039062 15.417969 15.75 14.847656 15.75 14.25 L 15.75 3.75 "/>
<path fill="none" stroke-width="1.5" stroke-linecap="round" stroke-linejoin="round" stroke="rgb(0%, 0%, 0%)" stroke-opacity="1" stroke-miterlimit="4" d="M 2.25 9 C 2.25 9.597656 2.960938 10.167969 4.226562 10.589844 C 5.492188 11.011719 7.210938 11.25 9 11.25 C 10.789062 11.25 12.507812 11.011719 13.773438 10.589844 C 15.039062 10.167969 15.75 9.597656 15.75 9 "/>
</svg>
