<svg xmlns="http://www.w3.org/2000/svg" width="322" height="60.713" viewBox="0 0 322 60.713">
  <g id="Grupo_471" data-name="Grupo 471" transform="translate(0 196.721)">
    <rect id="Rectángulo_470" data-name="Rectángulo 470" width="322" height="60.713" transform="translate(0 -196.721)" fill="none"/>
    <g id="Grupo_470" data-name="Grupo 470" transform="translate(8.048 -192.15)">
      <g id="Grupo_465" data-name="Grupo 465" transform="translate(0 10.776)">
        <path id="Trazado_2122" data-name="Trazado 2122" d="M8.487-176.836a15.063,15.063,0,0,1,5.407-5.465,14.208,14.208,0,0,1,7.4-2.033,14.2,14.2,0,0,1,7.4,2.033,15.378,15.378,0,0,1,5.447,5.465,14.244,14.244,0,0,1,2.033,7.381,14.179,14.179,0,0,1-2.033,7.421,15.152,15.152,0,0,1-5.447,5.387,14.422,14.422,0,0,1-7.4,1.992,14.4,14.4,0,0,1-7.421-1.992,14.893,14.893,0,0,1-5.387-5.387,14.4,14.4,0,0,1-1.992-7.421A14.466,14.466,0,0,1,8.487-176.836ZM13.618-164.8a9.074,9.074,0,0,0,3.276,3.375,8.779,8.779,0,0,0,4.6,1.243,8.329,8.329,0,0,0,4.459-1.243,8.8,8.8,0,0,0,3.157-3.355,9.651,9.651,0,0,0,1.145-4.677,9.581,9.581,0,0,0-1.185-4.736,9.006,9.006,0,0,0-3.217-3.375,8.5,8.5,0,0,0-4.519-1.243,8.5,8.5,0,0,0-4.519,1.243,9.009,9.009,0,0,0-3.218,3.375,9.581,9.581,0,0,0-1.183,4.736A9.3,9.3,0,0,0,13.618-164.8Z" transform="translate(-6.495 184.335)" fill="#333"/>
        <path id="Trazado_2123" data-name="Trazado 2123" d="M40.058-154.736a10.233,10.233,0,0,1-4.163,4.164,13.781,13.781,0,0,1-6.2,1.58v-5.566q6.079-.316,6.079-6.709V-184.08h5.763v22.931A13.146,13.146,0,0,1,40.058-154.736Z" transform="translate(-0.949 184.396)" fill="#333"/>
        <path id="Trazado_2124" data-name="Trazado 2124" d="M45.3-176.836A15.054,15.054,0,0,1,50.7-182.3a14.2,14.2,0,0,1,7.4-2.033,14.2,14.2,0,0,1,7.4,2.033,15.388,15.388,0,0,1,5.447,5.465,14.243,14.243,0,0,1,2.032,7.381,14.178,14.178,0,0,1-2.032,7.421,15.162,15.162,0,0,1-5.447,5.387,14.426,14.426,0,0,1-7.4,1.992,14.392,14.392,0,0,1-7.419-1.992,14.883,14.883,0,0,1-5.387-5.387,14.389,14.389,0,0,1-1.994-7.421A14.455,14.455,0,0,1,45.3-176.836ZM50.428-164.8a9.064,9.064,0,0,0,3.276,3.375,8.775,8.775,0,0,0,4.6,1.243,8.329,8.329,0,0,0,4.459-1.243,8.794,8.794,0,0,0,3.157-3.355,9.637,9.637,0,0,0,1.145-4.677,9.568,9.568,0,0,0-1.185-4.736,9,9,0,0,0-3.215-3.375,8.5,8.5,0,0,0-4.52-1.243,8.5,8.5,0,0,0-4.519,1.243,9.006,9.006,0,0,0-3.217,3.375,9.567,9.567,0,0,0-1.183,4.736A9.3,9.3,0,0,0,50.428-164.8Z" transform="translate(2.304 184.335)" fill="#333"/>
      </g>
      <g id="Grupo_468" data-name="Grupo 468" transform="translate(135.433)">
        <path id="Trazado_2125" data-name="Trazado 2125" d="M243.958-154.031a14.854,14.854,0,0,1-7.625-2.049,15.347,15.347,0,0,1-5.532-5.532,14.857,14.857,0,0,1-2.049-7.625,14.919,14.919,0,0,1,2.048-7.584,15.528,15.528,0,0,1,5.551-5.612,14.679,14.679,0,0,1,7.608-2.09,14.679,14.679,0,0,1,7.608,2.09,15.88,15.88,0,0,1,5.589,5.608,14.718,14.718,0,0,1,2.088,7.588,14.646,14.646,0,0,1-2.089,7.629,15.63,15.63,0,0,1-5.592,5.53A14.893,14.893,0,0,1,243.958-154.031Zm.04-24.155A8.142,8.142,0,0,0,239.689-177a8.641,8.641,0,0,0-3.073,3.226,9.223,9.223,0,0,0-1.134,4.539,8.94,8.94,0,0,0,1.152,4.458,8.683,8.683,0,0,0,3.131,3.225,8.411,8.411,0,0,0,4.39,1.186,7.953,7.953,0,0,0,4.246-1.183,8.433,8.433,0,0,0,3.013-3.2,9.281,9.281,0,0,0,1.1-4.484,9.235,9.235,0,0,0-1.132-4.539A8.631,8.631,0,0,0,248.3-177,8.127,8.127,0,0,0,244-178.186Z" transform="translate(-88.8 195.066)"/>
        <g id="Grupo_466" data-name="Grupo 466" transform="translate(0 10.776)">
          <path id="Trazado_2126" data-name="Trazado 2126" d="M125.924-164.117h-3.4v9.515H115.8v-29.416h10.124a11.343,11.343,0,0,1,7.922,2.749,9.018,9.018,0,0,1,3.033,6.983,9.267,9.267,0,0,1-3.165,7.507A11.7,11.7,0,0,1,125.924-164.117Zm-.784-14.534h-2.619v9.21h2.227q5.325,0,5.324-4.845Q130.071-178.649,125.14-178.65Z" transform="translate(-115.8 184.411)"/>
          <path id="Trazado_2127" data-name="Trazado 2127" d="M159.371-165.994q0,5.762-3.23,8.795t-8.728,3.034a12.326,12.326,0,0,1-8.686-3.012q-3.273-3.011-3.274-8.511v-18.33h6.721v18.287q0,5.457,5.239,5.455t5.236-5.674v-18.069h6.722Z" transform="translate(-111.102 184.411)"/>
          <path id="Trazado_2128" data-name="Trazado 2128" d="M171.861-154.6h-12.7v-29.416H170.6q4.845,0,7.376,2.291A7.514,7.514,0,0,1,180.5-175.9a6.9,6.9,0,0,1-1.222,4.058,5.973,5.973,0,0,1-3.187,2.358,6.56,6.56,0,0,1,5.107,6.9,7.362,7.362,0,0,1-2.51,5.739A9.859,9.859,0,0,1,171.861-154.6Zm-2.4-24.049h-3.578v6.59h2.488a6.736,6.736,0,0,0,3.949-.959,2.977,2.977,0,0,0,1.332-2.531Q173.651-178.65,169.46-178.65Zm0,11.872h-3.578v6.807h3.535q4.973,0,4.976-3.4T169.46-166.778Z" transform="translate(-105.435 184.411)"/>
          <path id="Trazado_2129" data-name="Trazado 2129" d="M198.059-154.6H180.47v-29.416h6.722v23.524h10.868Z" transform="translate(-100.341 184.411)"/>
          <path id="Trazado_2130" data-name="Trazado 2130" d="M204.734-154.6h-6.722v-29.416h6.722Z" transform="translate(-96.148 184.411)"/>
          <path id="Trazado_2131" data-name="Trazado 2131" d="M230.313-155.836q-2.663,1.66-7.682,1.659a14.979,14.979,0,0,1-10.8-4.168,14.294,14.294,0,0,1-4.343-10.8A14.86,14.86,0,0,1,211.7-180.1a14.807,14.807,0,0,1,10.977-4.234q4.974,0,7.637,1.659v6.458a13.68,13.68,0,0,0-7.289-2.006,7.95,7.95,0,0,0-5.935,2.466,9.07,9.07,0,0,0-2.4,6.612,8.649,8.649,0,0,0,2.4,6.437,8.422,8.422,0,0,0,6.2,2.379,11.751,11.751,0,0,0,7.028-2.1Z" transform="translate(-93.883 184.335)"/>
        </g>
        <g id="Grupo_467" data-name="Grupo 467" transform="translate(33.764)">
          <path id="Trazado_2132" data-name="Trazado 2132" d="M152.47-188.827c-.043-.083-.083-.169-.129-.25a10.815,10.815,0,0,0-3.723-3.955l-5.568,9.643Z" transform="translate(-143.05 193.032)" fill="#fdbc18"/>
        </g>
      </g>
      <g id="Grupo_469" data-name="Grupo 469" transform="translate(82.782 3.536)">
        <path id="Trazado_2133" data-name="Trazado 2133" d="M114.842-178.911a23.109,23.109,0,0,0-8.184-8.212,21.345,21.345,0,0,0-11.118-3.054,21.348,21.348,0,0,0-11.118,3.054,22.62,22.62,0,0,0-8.123,8.212,21.719,21.719,0,0,0-2.994,11.088A21.623,21.623,0,0,0,76.3-156.676a22.371,22.371,0,0,0,8.093,8.095,21.623,21.623,0,0,0,11.148,2.994,21.666,21.666,0,0,0,11.118-2.994,22.783,22.783,0,0,0,8.184-8.095,21.3,21.3,0,0,0,3.053-11.148A21.4,21.4,0,0,0,114.842-178.911Zm-6.835,18.556A14.033,14.033,0,0,1,102.969-155a13.279,13.279,0,0,1-7.116,1.984A13.991,13.991,0,0,1,88.515-155a14.462,14.462,0,0,1-5.228-5.385,14.835,14.835,0,0,1-1.921-7.432,15.292,15.292,0,0,1,1.888-7.558,14.373,14.373,0,0,1,5.135-5.385,13.546,13.546,0,0,1,7.211-1.984,13.548,13.548,0,0,1,7.21,1.984,14.37,14.37,0,0,1,5.133,5.385,15.306,15.306,0,0,1,1.89,7.558A15.4,15.4,0,0,1,108.008-160.355Z" transform="translate(-73.306 190.178)"/>
        <path id="Trazado_2134" data-name="Trazado 2134" d="M102.1-175.261l-8.852,5.11L98.47-179.2c-.04-.025-.074-.055-.114-.079a9.607,9.607,0,0,0-5.111-1.406,9.6,9.6,0,0,0-5.11,1.406,10.19,10.19,0,0,0-3.639,3.816,10.85,10.85,0,0,0-1.338,5.358,10.517,10.517,0,0,0,1.36,5.266,10.25,10.25,0,0,0,3.706,3.816,9.915,9.915,0,0,0,5.2,1.406,9.412,9.412,0,0,0,5.043-1.406,9.954,9.954,0,0,0,3.571-3.793,10.912,10.912,0,0,0,1.295-5.289A10.861,10.861,0,0,0,102.1-175.261Z" transform="translate(-70.951 192.447)" fill="#333"/>
        <path id="Trazado_2135" data-name="Trazado 2135" d="M100.151-175.542l.019-.011c-.041-.078-.078-.159-.121-.235a10.183,10.183,0,0,0-3.505-3.723l-.019.031L91.3-170.432Z" transform="translate(-69.005 192.728)" fill="#fdbc18"/>
      </g>
    </g>
  </g>
</svg>
