<svg xmlns="http://www.w3.org/2000/svg" width="185.8" height="153.4" viewBox="0 0 185.8 153.4"><defs><style>.cls-1{opacity:0.3;}.cls-2{fill:#fff;}</style></defs><title>logo_blanco</title><g id="Layer_2" data-name="Layer 2"><g id="Layer_1-2" data-name="Layer 1"><g class="cls-1"><path class="cls-2" d="M123.9,71.3c0,31.1-31.5,56.2-65.7,56.2a41.8,41.8,0,0,1-7.1-.3c-11.5-1.2,3.8,26.2,3.8,26.2S.6,121.3,0,71.3c-.4-31,27.7-56.2,61.9-56.2S123.9,40.3,123.9,71.3Z"/></g><g class="cls-1"><path class="cls-2" d="M61.9,82c0-31,31.5-56.2,65.7-56.2a40,40,0,0,1,7,.4C146.2,27.4,130.9,0,130.9,0s54.2,32.1,54.9,82c.4,31.1-27.8,56.2-61.9,56.2S61.9,113.1,61.9,82Z"/></g><path class="cls-2" d="M25.6,56.2h4.8a17.3,17.3,0,0,1,6.5,1,5.3,5.3,0,0,1,3,3.5,19.3,19.3,0,0,1,.4,2.7v.4c0,1,0,2.2.1,3.5a17.3,17.3,0,0,1-.5,4.5c-.3,1.5-.8,3.5-1.3,5.8-1.1,4.6-2,8.2-2.6,10.8a15.1,15.1,0,0,1-2.6,6,10,10,0,0,1-4.5,3.4,24.6,24.6,0,0,1-7.3.9H16.5Zm1.1,35.9a3.7,3.7,0,0,0,1.8-1.9,33.6,33.6,0,0,0,2.4-8.1,45.3,45.3,0,0,1,1-4.6c.1-.7.3-1.6.5-2.6s.4-1.8.4-2.1a43.5,43.5,0,0,0,1.1-7.4v-.7a2.3,2.3,0,0,0-.9-1.9,7.4,7.4,0,0,0-2.6-.4L23.9,92.6A6.7,6.7,0,0,0,26.7,92.1Z"/><path class="cls-2" d="M47,56.4l6.2-.2-9,42.4H38Z"/><path class="cls-2" d="M62.6,56.2h7.6l-2.6,42-6.1.5.7-8.6h-6l-3,8.6H47.1Zm.1,27.3,1-13.5V68.9h-.3L63.1,70,58.4,83.5Zm6.1-36.2h6l-5.6,5.2H64.7Z"/><path class="cls-2" d="M79.5,56.2h6.2L77.8,92.9h8.4l-1.3,5.8H70.5Z"/><path class="cls-2" d="M94.3,65a12.7,12.7,0,0,1,1.9-4.6,13.7,13.7,0,0,1,3.2-3.2,8.9,8.9,0,0,1,5.1-1.4,6.4,6.4,0,0,1,4.5,1.4,5.2,5.2,0,0,1,1.8,3.2,9.5,9.5,0,0,1,.1,4.3L105.6,90a16,16,0,0,1-2,4.6,16.1,16.1,0,0,1-3.2,3.2,8.8,8.8,0,0,1-5.1,1.4,6.5,6.5,0,0,1-4.5-1.4A5.7,5.7,0,0,1,89,94.6a7.3,7.3,0,0,1-.3-2.2,23.2,23.2,0,0,1,.2-2.4ZM95,90.9a3.8,3.8,0,0,0,.5,1.7,1.2,1.2,0,0,0,1.1.5,2.3,2.3,0,0,0,2.2-1.5,6.4,6.4,0,0,0,.6-1.6l5.3-25a4.5,4.5,0,0,0,.1-1.1,2.7,2.7,0,0,0-.4-1.6,1.7,1.7,0,0,0-1.2-.5,2.7,2.7,0,0,0-2.2,1.6,6,6,0,0,0-.5,1.6L95.2,89.7C95.1,90.2,95.1,90.6,95,90.9Z"/><path class="cls-2" d="M109,93.1a12.5,12.5,0,0,1,.4-3.1l5.3-25a14.9,14.9,0,0,1,2-4.6,13.6,13.6,0,0,1,3.1-3.2,9,9,0,0,1,5.2-1.4,5.7,5.7,0,0,1,6.3,4.6,7.5,7.5,0,0,1,.3,2.3,13.7,13.7,0,0,1-.2,1.9L130,71.3l-6.3.2,1.4-6.5a4.5,4.5,0,0,0,.1-1.1,2.7,2.7,0,0,0-.4-1.6,1.3,1.3,0,0,0-1.1-.5,2.5,2.5,0,0,0-2.2,1.6A3.8,3.8,0,0,0,121,65l-5.5,25.5a5,5,0,0,0-.2,1.2,2.7,2.7,0,0,0,.5,1.5,1.3,1.3,0,0,0,1.1.5,2.3,2.3,0,0,0,2.2-1.6,6.4,6.4,0,0,0,.6-1.6l1.6-7.7h-2.5l1.1-5.5h8.8l-4.5,21.3h-3.7l-.3-2a7.5,7.5,0,0,1-5.4,2.5,5.7,5.7,0,0,1-4.2-1.4,5.7,5.7,0,0,1-1.5-3.1A8.1,8.1,0,0,1,109,93.1Z"/><path class="cls-2" d="M135.5,65a14.9,14.9,0,0,1,2-4.6,15.9,15.9,0,0,1,3.1-3.2,9,9,0,0,1,5.2-1.4,6.4,6.4,0,0,1,4.5,1.4,5.2,5.2,0,0,1,1.8,3.2,7.5,7.5,0,0,1,.3,2.3,16.8,16.8,0,0,1-.2,2L146.8,90a13.2,13.2,0,0,1-5.1,7.8,9,9,0,0,1-5.1,1.4,6.8,6.8,0,0,1-4.6-1.4,5.6,5.6,0,0,1-1.7-3.2,7.3,7.3,0,0,1-.3-2.2,10.6,10.6,0,0,1,.2-2.4Zm.8,25.9a2.9,2.9,0,0,0,.5,1.7c.2.4.6.5,1.1.5a2.2,2.2,0,0,0,2.1-1.5,6.4,6.4,0,0,0,.6-1.6l5.3-25a5.2,5.2,0,0,0,.2-1.1,3.8,3.8,0,0,0-.4-1.6,1.7,1.7,0,0,0-1.2-.5,2.5,2.5,0,0,0-2.2,1.6,3.8,3.8,0,0,0-.5,1.6l-5.3,24.7A7.4,7.4,0,0,0,136.3,90.9Z"/><path class="cls-2" d="M149.7,92.2a16.4,16.4,0,0,1,.2-2.2c.1-.8.3-1.9.5-3.2l6.3-.5a17.6,17.6,0,0,0-.6,4v.9a3.8,3.8,0,0,0,.6,1.7,1.7,1.7,0,0,0,1.4.6c1.6,0,2.8-1.6,3.5-4.7a5,5,0,0,0,.2-1.2,9.7,9.7,0,0,0-.8-3.5l-.2-.6a3.6,3.6,0,0,1-.3-.7c-.1-.1-.1-.3-.3-.6s-.1-.5-.2-.6-.4-.8-.6-1.4l-.7-1.4-1.4-3.1a21.4,21.4,0,0,1-1.7-6.6v-.9a12.9,12.9,0,0,1,.3-2.5,12.9,12.9,0,0,1,3.3-6.7,8.7,8.7,0,0,1,6.9-3.2h.2c3.3,0,5.3,1.2,6.1,3.7a11.4,11.4,0,0,1,.5,3.3,22.7,22.7,0,0,1-.5,4.2l-6.2.6a17.7,17.7,0,0,0,.4-3.5v-.7c-.2-1.3-.7-2-1.6-2s-2.5,1.5-3.1,4.3c0,.4-.1.8-.1,1.2a10.9,10.9,0,0,0,.7,3.3c.8,2,1.6,3.7,2.3,5.2a42.5,42.5,0,0,1,2.7,6.4,16.4,16.4,0,0,1,.6,4.2,19.5,19.5,0,0,1-.2,2.5,17.5,17.5,0,0,1-3.4,7.5,9.7,9.7,0,0,1-7.6,3.2c-3.6,0-5.9-1.3-6.7-3.8a10,10,0,0,1-.5-2.6Z"/></g></g></svg>