<svg xmlns="http://www.w3.org/2000/svg" width="185.1" height="152.8" viewBox="0 0 185.1 152.8"><defs><style>.cls-1{isolation:isolate;}.cls-2{fill:#546877;}.cls-3{mix-blend-mode:multiply;}.cls-4{fill:#1da7cd;}.cls-5{fill:#fff;}</style></defs><title>logo</title><g class="cls-1"><g id="Layer_2" data-name="Layer 2"><g id="Layer_1-2" data-name="Layer 1"><path class="cls-2" d="M123.4,71.1c0,30.9-31.4,56-65.5,56a40,40,0,0,1-7-.4c-11.5-1.2,3.8,26.1,3.8,26.1S.6,120.8,0,71.1c-.4-31,27.6-56,61.7-56S123.4,40.1,123.4,71.1Z"/><g class="cls-3"><path class="cls-4" d="M61.7,81.7c0-30.9,31.4-56,65.4-56a40,40,0,0,1,7,.4C145.6,27.3,130.3,0,130.3,0S184.4,32,185,81.7c.4,30.9-27.6,56-61.6,56S61.7,112.6,61.7,81.7Z"/></g><path class="cls-5" d="M25.5,56h4.8a15.8,15.8,0,0,1,6.5,1,5.5,5.5,0,0,1,2.9,3.4,7.9,7.9,0,0,1,.4,2.8v.4c0,1,0,2.1.1,3.4a17.1,17.1,0,0,1-.4,4.5c-.4,1.5-.8,3.5-1.4,5.8-1.1,4.6-1.9,8.2-2.5,10.7a16.5,16.5,0,0,1-2.6,6.1,10.6,10.6,0,0,1-4.5,3.3,24.2,24.2,0,0,1-7.3,1H16.4Zm1.1,35.8a3.7,3.7,0,0,0,1.8-1.9,36.9,36.9,0,0,0,2.4-8.1l.9-4.6c.2-.7.3-1.6.6-2.6s.3-1.8.4-2.1a42.7,42.7,0,0,0,1.1-7.3,1.9,1.9,0,0,0-.1-.8,1.9,1.9,0,0,0-.8-1.8,5.9,5.9,0,0,0-2.6-.4l-6.5,30A6.9,6.9,0,0,0,26.6,91.8Z"/><path class="cls-5" d="M46.8,56.2,53,56,44,98.2l-6.2.2Z"/><path class="cls-5" d="M62.3,56H70L67.4,97.8l-6.1.6.6-8.7h-6L53,98.3H46.9Zm.1,27.1,1.1-13.3V68.7h-.4l-.4,1.1L58.2,83.1Zm6.1-36h6l-5.6,5.2H64.4Z"/><path class="cls-5" d="M79.1,56h6.3L77.5,92.6h8.3l-1.2,5.8H70.2Z"/><path class="cls-5" d="M93.9,64.7a14.6,14.6,0,0,1,2-4.6A15,15,0,0,1,99,57a9,9,0,0,1,5.1-1.5,6.4,6.4,0,0,1,4.5,1.5,5,5,0,0,1,1.8,3.1,8.5,8.5,0,0,1,.3,2.3,15,15,0,0,1-.2,2l-5.3,25.3a21.3,21.3,0,0,1-2,4.6,15.4,15.4,0,0,1-3.2,3.1,8.7,8.7,0,0,1-5,1.4,6.7,6.7,0,0,1-4.6-1.4,5.3,5.3,0,0,1-1.7-3.1,7.8,7.8,0,0,1-.4-2.2,9.9,9.9,0,0,1,.3-2.4Zm.8,25.9a3.4,3.4,0,0,0,.5,1.7,1.1,1.1,0,0,0,1,.5,2.4,2.4,0,0,0,2.2-1.6,7.7,7.7,0,0,0,.6-1.5l5.3-25c0-.4.1-.7.1-1.1a3.3,3.3,0,0,0-.4-1.5,1.3,1.3,0,0,0-1.2-.5,2.5,2.5,0,0,0-2.2,1.6,5.3,5.3,0,0,0-.5,1.5L94.8,89.4C94.8,89.8,94.7,90.2,94.7,90.6Z"/><path class="cls-5" d="M108.5,92.8a12.4,12.4,0,0,1,.5-3.1l5.3-25a15.3,15.3,0,0,1,1.9-4.5,13.7,13.7,0,0,1,3.2-3.2,8.5,8.5,0,0,1,5.1-1.5A6.4,6.4,0,0,1,129,57a6,6,0,0,1,1.8,3.2,7.3,7.3,0,0,1,.3,2.2,15,15,0,0,1-.2,2l-1.4,6.7h-6.2l1.3-6.5a4.3,4.3,0,0,0,.2-1.1,3.3,3.3,0,0,0-.4-1.5,1.3,1.3,0,0,0-1.2-.5,2.4,2.4,0,0,0-2.2,1.6,5.3,5.3,0,0,0-.5,1.5L115,90.2a4.5,4.5,0,0,0-.1,1.1,2.4,2.4,0,0,0,.4,1.5,1.3,1.3,0,0,0,1.1.5,2.2,2.2,0,0,0,2.2-1.6,5.8,5.8,0,0,0,.6-1.5l1.7-7.7h-2.5l1.1-5.4h8.7l-4.5,21.3H120l-.3-2.1a7.4,7.4,0,0,1-5.4,2.5,5.1,5.1,0,0,1-5.6-4.5A7.7,7.7,0,0,1,108.5,92.8Z"/><path class="cls-5" d="M135,64.7a14.6,14.6,0,0,1,2-4.6,15,15,0,0,1,3.1-3.1,9,9,0,0,1,5.1-1.5,6.4,6.4,0,0,1,4.5,1.5,5,5,0,0,1,1.8,3.1,8.5,8.5,0,0,1,.3,2.3,15,15,0,0,1-.2,2l-5.3,25.3a21.3,21.3,0,0,1-2,4.6,15.4,15.4,0,0,1-3.2,3.1,8.7,8.7,0,0,1-5,1.4,6.7,6.7,0,0,1-4.6-1.4,5.3,5.3,0,0,1-1.7-3.1,7.8,7.8,0,0,1-.4-2.2,9.9,9.9,0,0,1,.3-2.4Zm.8,25.9a3.4,3.4,0,0,0,.5,1.7,1.1,1.1,0,0,0,1,.5,2.4,2.4,0,0,0,2.2-1.6,7.7,7.7,0,0,0,.6-1.5l5.3-25c0-.4.1-.7.1-1.1a2.4,2.4,0,0,0-.4-1.5,1.3,1.3,0,0,0-1.2-.5,2.5,2.5,0,0,0-2.2,1.6,5.3,5.3,0,0,0-.5,1.5l-5.3,24.7C135.9,89.8,135.8,90.2,135.8,90.6Z"/><path class="cls-5" d="M149.1,91.9c.1-.8.1-1.5.2-2.2s.3-2,.5-3.2l6.3-.6a18.3,18.3,0,0,0-.6,4.1v.8a3.8,3.8,0,0,0,.6,1.8,1.6,1.6,0,0,0,1.4.5c1.6,0,2.8-1.5,3.5-4.6a4.9,4.9,0,0,0,.1-1.2,9.1,9.1,0,0,0-.7-3.5c-.1-.1-.1-.4-.3-.7a2.1,2.1,0,0,1-.2-.6,1.6,1.6,0,0,1-.3-.6,2.5,2.5,0,0,1-.2-.7l-.7-1.3-.6-1.4a26.3,26.3,0,0,1-1.4-3.1,18.9,18.9,0,0,1-1.7-6.6v-.9c0-.7.1-1.5.2-2.5a14.7,14.7,0,0,1,3.3-6.6,9.5,9.5,0,0,1,6.9-3.3h.3c3.2,0,5.2,1.3,6.1,3.8a14.7,14.7,0,0,1,.4,3.2,21.8,21.8,0,0,1-.5,4.2l-6.2.6a18.5,18.5,0,0,0,.5-3.4,1.5,1.5,0,0,0-.1-.7c-.2-1.4-.7-2-1.6-2s-2.4,1.5-3,4.2a4.9,4.9,0,0,0-.1,1.2,8.6,8.6,0,0,0,.7,3.4c.8,1.9,1.5,3.6,2.3,5.1a56.6,56.6,0,0,1,2.6,6.4,16.7,16.7,0,0,1,.7,4.2,10.7,10.7,0,0,1-.3,2.5,18.2,18.2,0,0,1-3.3,7.4,9.7,9.7,0,0,1-7.6,3.2c-3.6,0-5.9-1.3-6.7-3.8a9.2,9.2,0,0,1-.5-2.5Z"/></g></g></g></svg>